<?xml version="1.0" encoding="UTF-8" standalone="no"?>
<!-- Generator: Adobe Illustrator 18.0.0, SVG Export Plug-In . SVG Version: 6.00 Build 0)  -->

<svg
   xmlns:dc="http://purl.org/dc/elements/1.1/"
   xmlns:cc="http://creativecommons.org/ns#"
   xmlns:rdf="http://www.w3.org/1999/02/22-rdf-syntax-ns#"
   xmlns:svg="http://www.w3.org/2000/svg"
   xmlns="http://www.w3.org/2000/svg"
   xmlns:sodipodi="http://sodipodi.sourceforge.net/DTD/sodipodi-0.dtd"
   xmlns:inkscape="http://www.inkscape.org/namespaces/inkscape"
   version="1.1"
   id="Capa_1"
   x="0px"
   y="0px"
   viewBox="0 0 340.699 340.699"
   style="enable-background:new 0 0 340.699 340.699;"
   xml:space="preserve"
   inkscape:version="0.91 r13725"
   sodipodi:docname="knife53_small.svg"><metadata
     id="metadata47"><rdf:RDF><cc:Work
         rdf:about=""><dc:format>image/svg+xml</dc:format><dc:type
           rdf:resource="http://purl.org/dc/dcmitype/StillImage" /><dc:title></dc:title></cc:Work></rdf:RDF></metadata><defs
     id="defs45" /><sodipodi:namedview
     pagecolor="#ffffff"
     bordercolor="#666666"
     borderopacity="1"
     objecttolerance="10"
     gridtolerance="10"
     guidetolerance="10"
     inkscape:pageopacity="0"
     inkscape:pageshadow="2"
     inkscape:window-width="1920"
     inkscape:window-height="1028"
     id="namedview43"
     showgrid="false"
     inkscape:zoom="1.3853871"
     inkscape:cx="-45.12015"
     inkscape:cy="210.83605"
     inkscape:window-x="1912"
     inkscape:window-y="-8"
     inkscape:window-maximized="1"
     inkscape:current-layer="g3" /><g
     id="g3"><path
       d="M 257.63,112.591 C 232.076,87.037 198.117,72.034 162.007,70.346 l -8.417,-0.393 3.027,7.863 c 5.282,13.72 12.018,26.922 20.021,39.241 8.013,12.332 17.34,23.849 27.724,34.232 l 13.526,13.526 -109.627,0 0,-60.551 -12.157,11.201 -0.163,0.156 c -2.008,2.008 -4.679,3.114 -7.521,3.114 -2.842,0 -5.513,-1.106 -7.524,-3.117 -2.011,-2.008 -3.118,-4.678 -3.118,-7.518 0,-2.84 1.107,-5.51 3.123,-7.521 L 103.298,78.17 101.256,74.536 C 91.568,57.298 73.281,46.59 53.531,46.59 l -5.5,0 0,146.817 c -2.839,6.191 -4.435,13.066 -4.435,20.311 0.0061,25.41513 18.611182,48.98756 48.902,48.903 l 199.297,0 c 26.966,0 48.903,-21.937 48.903,-48.903 0,-13.925 -5.851,-26.508 -15.224,-35.422 -0.556,-0.531 -67.844,-65.705 -67.844,-65.705 z m -45.49,30.92 c -9.841,-9.842 -18.683,-20.758 -26.276,-32.447 -5.986,-9.213 -11.225,-18.949 -15.628,-29.036 30.077,3.376 58.083,16.807 79.672,38.396 l 45.855,44.565 c -1.31,-0.106 -2.63,-0.175 -3.967,-0.175 l -58.352,0 z M 89.481,76.433 73.125,92.798 c -4.093,4.086 -6.347,9.521 -6.347,15.302 0,5.782 2.254,11.216 6.343,15.299 4.085,4.086 9.519,6.336 15.299,6.336 3.097,0 6.096,-0.646 8.84,-1.875 l 0,36.955 -4.762,0 c -12.939,0 -24.712,5.061 -33.468,13.295 l 0,-120.171 c 12.268,1.561 23.374,8.286 30.451,18.494 z m 202.315,175.188 -199.297,0 c -20.9,0 -37.903,-17.003 -37.903,-37.903 0,-20.899 17.003,-37.902 37.903,-37.902 l 199.297,0 c 20.9,0 37.903,17.003 37.903,37.902 0,20.9 -17.003,37.903 -37.903,37.903 z"
       id="path5"
       inkscape:connector-curvature="0"
       sodipodi:nodetypes="cccccccccccscscccsccccsscccccccsccccscsccscccsssssss"
       style="fill:#b8b8b8;fill-opacity:1" /></g><g
     id="g13" /><g
     id="g15" /><g
     id="g17" /><g
     id="g19" /><g
     id="g21" /><g
     id="g23" /><g
     id="g25" /><g
     id="g27" /><g
     id="g29" /><g
     id="g31" /><g
     id="g33" /><g
     id="g35" /><g
     id="g37" /><g
     id="g39" /><g
     id="g41" /></svg>